# AST/ASF file generated using VICON BodyLanguage
# -----------------------------------------------
:version 1.10
:name VICON
:units
  mass 1.0
  length 0.45
  angle deg
:documentation
   .ast/.asf automatically generated from VICON data using
   VICON BodyBuilder and BodyLanguage model FoxedUp or BRILLIANT.MOD
:root
   order TX TY TZ RX RY RZ
   axis XYZ
   position 0 0 0  
   orientation 0 0 0 
:bonedata
  begin
     id 1 
     name lhipjoint
     direction 0.521452 -0.77106 0.36545 
     length 2.0933 
     axis 0 0 0  XYZ
  end
  begin
     id 2 
     name lfemur
     direction 0.34202 -0.939693 0  
     length 6.83441  
     axis 0 0 20  XYZ
    dof rx ry rz
    limits (-160.0 20.0)
           (-70.0 70.0)
           (-60.0 70.0)
  end
  begin
     id 3 
     name ltibia
     direction 0.34202 -0.939693 0   
     length 7.28749   
     axis 0 0 20   XYZ
    dof rx
    limits (-10.0 170.0)
  end
  begin
     id 4 
     name lfoot
     direction 0.100608 -0.276418 0.955757   
     length 1.52195   
     axis -90 7.62852e-016 20   XYZ
    dof rx rz
    limits (-45.0 90.0)
           (-70.0 20.0)
  end
  begin
     id 5 
     name ltoes
     direction 1.53558e-011 -4.21907e-011 1   
     length 0.770459   
     axis -90 7.62852e-016 20   XYZ
    dof rx
    limits (-90.0 20.0)
  end
  begin
     id 6 
     name rhipjoint
     direction -0.488071 -0.788702 0.373812   
     length 2.04648  
     axis 0 0 0  XYZ 
  end
  begin
     id 7 
     name rfemur
     direction -0.34202 -0.939693 0   
     length 6.92583   
     axis 0 0 -20   XYZ
    dof rx ry rz
    limits (-160.0 20.0)
           (-70.0 70.0)
           (-70.0 60.0)
  end
  begin
     id 8 
     name rtibia
     direction -0.34202 -0.939693 0   
     length 7.41043   
     axis 0 0 -20   XYZ
    dof rx
    limits (-10.0 170.0)
 end
 begin
     id 9 
     name rfoot
     direction -0.0784433 -0.215521 0.973343   
     length 1.67708  
     axis -90 -7.62852e-016 -20   XYZ
    dof rx rz
    limits (-45.0 90.0)
           (-20.0 70.0)
  end
  begin
     id 10 
     name rtoes
     direction -1.53551e-011 -4.21842e-011 1   
     length 0.849787   
     axis -90 -7.62852e-016 -20   XYZ
    dof rx
    limits (-90.0 20.0)
  end
  begin
     id 11 
     name lowerback
     direction -0.0122332 0.997575 -0.0685192   
     length 1.98724   
     axis 0 0 0   XYZ
    dof rx ry rz
    limits (-20.0 45.0)
           (-30.0 30.0)
           (-30.0 30.0)
  end
  begin
     id 12 
     name upperback
     direction 0.0182347 0.999724 -0.0148421   
     length 1.99029   
     axis 0 0 0   XYZ
    dof rx ry rz
    limits (-20.0 45.0)
           (-30.0 30.0)
           (-30.0 30.0)
  end
  begin
     id 13 
     name thorax
     direction 0.0242908 0.99956 0.0170184   
     length 1.99573   
     axis 0 0 0   XYZ
    dof rx ry rz
    limits (-20.0 45.0)
           (-30.0 30.0)
           (-30.0 30.0)
  end
  begin
     id 14 
     name lowerneck
     direction 0.0654488 0.985533 0.156338   
     length 1.4285   
     axis 0 0 0   XYZ
    dof rx ry rz
    limits (-20.0 45.0)
           (-30.0 30.0)
           (-30.0 30.0)
  end
  begin
     id 15 
     name upperneck
     direction -0.02953 0.998556 -0.0448842   
     length 1.44709   
     axis 0 0 0   XYZ
    dof rx ry rz
    limits (-20.0 45.0)
           (-30.0 30.0)
           (-30.0 30.0)
  end
  begin
     id 16
     name head
     direction -0.0155588 0.999386 -0.0314063  
     length 1.44689  
     axis 0 0 0   XYZ
    dof rx ry rz
    limits (-20.0 45.0)
           (-30.0 30.0)
           (-30.0 30.0)
  end
  begin
     id 17 
     name lclavicle
     direction 0.968229 0.236071 -0.0824755  
     length 3.60593  
     axis 0 0 0   XYZ
    dof ry rz
    limits (-20.0 10.0)
           (0.0 20.0)
  end
  begin
     id 18 
     name lhumerus
     direction 1 -4.48968e-011 7.8138e-029   
     length 5.06035   
     axis 180 -30 -90   XYZ
    dof rx ry rz
    limits (-60.0 90.0)
           (-90.0 90.0)
           (-90.0 90.0)
  end
  begin
     id 19
     name lradius
     direction 1 -4.48967e-011 9.02887e-028   
     length 3.1478   
     axis 180 -30 -90   XYZ
    dof rx
    limits (-10.0 170.0)
  end
  begin
     id 20
     name lwrist
     direction 1 -4.48961e-011 7.20928e-028   
     length 1.5739   
     axis -5.52449e-016 90 90   XYZ
    dof ry
    limits (-180.0 0.0)
 end
  begin
     id 21 
     name lhand
     direction 1 -4.48972e-011 1.44186e-027   
     length 0.606747   
     axis -9.20027e-016 90 90   XYZ
    dof rx rz
    limits (-90.0 90.0)
           (-45.0 45.0)
  end
  begin
     id 22 
     name lfingers
     direction 1 -4.48943e-011 2.88371e-027   
     length 0.489175   
     axis -1.84005e-015 90 90   XYZ
    dof rx
    limits (0.0 90.0)
  end
  begin
     id 23
     name lthumb
     direction 0.707107 -6.34917e-011 0.707107   
     length 0.70236   
     axis -90 45 2.85299e-015   XYZ
    dof rx rz
    limits (-45.0 45.0)
           (-45.0 45.0)
  end
  begin
     id 24 
     name rclavicle
     direction -0.978165 0.207816 0.0022268   
     length 3.35425  
     axis 0 0 0   XYZ 
    dof ry rz
    limits (-10.0 20.0)
           (-20.0 0.0)
  end
  begin
     id 25 
     name rhumerus
     direction -1 -4.48964e-011 -4.02159e-027  
     length 5.12273   
     axis 180 30 90   XYZ
    dof rx ry rz
    limits (-90.0 60.0)
           (-90.0 90.0)
           (-90.0 90.0)
  end
  begin
     id 26 
     name rradius
     direction -1 -4.48966e-011 1.62746e-027   
     length 3.422   
     axis 180 30 90   XYZ
    dof rx
    limits (-10.0 170.0)
  end
  begin
     id 27 
     name rwrist
     direction -1 -4.4896e-011 7.20928e-028   
     length 1.711   
     axis -5.52449e-016 -90 -90   XYZ
    dof ry
    limits (-180.0 0.0)
  end
  begin
     id 28
     name rhand
     direction -1 -4.48979e-011 1.44186e-027   
     length 0.704599   
     axis -9.20027e-016 -90 -90   XYZ
    dof rx rz
    limits (-90.0 90.0)
           (-45.0 45.0)
  end
  begin
     id 29
     name rfingers
     direction -1 -4.48962e-011 2.88371e-027   
     length 0.568066   
     axis -1.84005e-015 -90 -90   XYZ
    dof rx
    limits (0.0 90.0)
  end
  begin
     id 30
     name rthumb
     direction -0.707107 -6.34949e-011 0.707107   
     length 0.815633   
     axis -90 -45 -2.85299e-015   XYZ
    dof rx rz
    limits (-45.0 45.0)
           (-45.0 45.0)
  end
:hierarchy
  begin
    root lhipjoint rhipjoint lowerback
    lhipjoint lfemur
    lfemur ltibia
    ltibia lfoot
    lfoot ltoes
    rhipjoint rfemur
    rfemur rtibia
    rtibia rfoot
    rfoot rtoes
    lowerback upperback
    upperback thorax
    thorax lowerneck lclavicle rclavicle
    lowerneck upperneck
    upperneck head
    lclavicle lhumerus
    lhumerus lradius
    lradius lwrist
    lwrist lhand lthumb
    lhand lfingers
    rclavicle rhumerus
    rhumerus rradius
    rradius rwrist
    rwrist rhand rthumb
    rhand rfingers
  end

#!OML:ASF E:\id_vita\Project 1\Capture day 1\Session 1\Male1.ASF
:FULLY-SPECIFIED
:DEGREES
75
root 38.9688 16.1269 -0.367806 -67.3995 -88.1207 75.585
lowerback 3.44307 -1.83758 -8.27653
upperback 4.04455 -2.67948 0.31788
thorax 2.67333 -1.61376 4.98601
lowerneck -6.8159 2.81475 2.5408
upperneck 38.5924 2.09796 -2.21726
head 14.4784 0.270615 -1.26872
rclavicle 3.12092e-014 -9.93923e-015
rhumerus -27.7692 1.84825 -87.7459
rradius 31.5939
rwrist 2.70829
rhand -20.2727 37.8794
rfingers 7.12502
rthumb 6.07657 7.98657
lclavicle 3.12092e-014 -9.93923e-015
lhumerus -24.517 20.6066 81.9237
lradius 19.6019
lwrist -7.9035
lhand -17.1423 37.3259
lfingers 7.12502
lthumb 9.09808 67.1096
rfemur -17.6067 -0.577046 13.3446
rtibia 30.442
rfoot -15.8754 -18.2167
rtoes -7.99952
lfemur -16.252 -6.4549 -14.014
ltibia 29.1674
lfoot -16.9134 24.5718
ltoes -10.779
76
root 39.0125 16.1392 -0.39392 -69.2352 -88.155 78.0663
lowerback 3.75785 -1.78633 -8.4687
upperback 3.92538 -2.64817 0.370429
thorax 2.38076 -1.58776 5.16486
lowerneck -6.76782 2.68662 1.99305
upperneck 38.3972 1.86045 -1.7082
head 14.3485 0.16257 -0.987522
rclavicle 1.44119e-014 -7.95139e-015
rhumerus -27.61 2.62927 -87.9114
rradius 31.8834
rwrist 2.82892
rhand -19.9371 38.0207
rfingers 7.12502
rthumb 6.40057 8.13736
lclavicle 1.44119e-014 -7.95139e-015
lhumerus -24.3224 20.0004 82.209
lradius 19.9494
lwrist -7.83804
lhand -17.1913 36.4795
lfingers 7.12502
lthumb 9.05071 66.2653
rfemur -18.5656 -0.723062 13.471
rtibia 30.4665
rfoot -15.5904 -18.1181
rtoes -8.43501
lfemur -17.1384 -6.2362 -13.8033
ltibia 29.1515
lfoot -16.6956 24.421
ltoes -10.576
77
root 39.0329 16.1427 -0.409222 -84.308 -88.3958 93.4183
lowerback 3.98065 -1.58565 -8.44588
upperback 4.06431 -2.40234 0.416637
thorax 2.36438 -1.4718 5.20494
lowerneck -6.85119 2.71584 2.23697
upperneck 38.0811 1.95833 -1.8786
head 14.2256 0.234072 -1.07905
rclavicle -3.48867e-014 2.38542e-015
rhumerus -27.3769 3.41837 -88.0319
rradius 32.3208
rwrist 2.94842
rhand -19.5922 37.9676
rfingers 7.12502
rthumb 6.73347 8.09471
lclavicle -3.48867e-014 2.38542e-015
lhumerus -23.919 19.4529 82.5604
lradius 20.2337
lwrist -7.87543
lhand -17.1571 36.3148
lfingers 7.12502
lthumb 9.08379 66.0992
rfemur -19.1122 -0.796615 13.7139
rtibia 30.499
rfoot -15.8201 -17.2775
rtoes -8.10611
lfemur -17.3867 -6.56262 -13.5131
ltibia 29.1286
lfoot -16.624 25.1398
ltoes -10.1867
78
root 39.061 16.1451 -0.429668 -67.6569 -88.4391 76.7677
lowerback 4.71049 -1.62924 -8.45887
upperback 4.24894 -2.53306 0.49674
thorax 2.17389 -1.54183 5.32065
lowerneck -6.85126 2.71766 2.43857
upperneck 37.7967 1.98712 -1.97199
head 14.0968 0.27679 -1.14178
rclavicle 9.54166e-015 -7.95139e-015
rhumerus -27.2288 4.13003 -88.0979
rradius 32.8928
rwrist 3.04039
rhand -19.5162 37.8556
rfingers 7.12502
rthumb 6.80684 7.98498
lclavicle 9.54166e-015 -7.95139e-015
lhumerus -23.4955 18.5349 83.0356
lradius 20.6152
lwrist -7.53751
lhand -17.2873 36.3467
lfingers 7.12502
lthumb 8.95807 66.1365
rfemur -19.1534 -0.999498 13.9552
rtibia 30.5595
rfoot -16.1518 -17.0691
rtoes -7.91188
lfemur -17.6119 -6.45156 -13.2488
ltibia 29.0795
lfoot -16.3328 24.6062
ltoes -10.6981
79
root 39.0888 16.1546 -0.457844 -73.9912 -88.5869 83.5858
lowerback 4.28251 -1.56399 -8.26959
upperback 4.67234 -2.39431 0.293286
thorax 2.81625 -1.50897 4.9728
lowerneck -6.93234 2.77176 2.75
upperneck 37.2273 2.04017 -1.87183
head 13.8554 0.380725 -1.13478
rclavicle 5.46658e-014 1.66979e-014
rhumerus -26.433 4.63552 -88.5435
rradius 33.1812
rwrist 3.2126
rhand -19.6969 37.5489
rfingers 7.12502
rthumb 6.63242 7.67279
lclavicle 5.46658e-014 1.66979e-014
lhumerus -22.6378 17.0341 83.3709
lradius 21.1584
lwrist -6.79134
lhand -17.828 36.4379
lfingers 7.12502
lthumb 8.43632 66.2494
rfemur -19.9064 -1.20951 14.2198
rtibia 30.6307
rfoot -16.1074 -16.5659
rtoes -8.13474
lfemur -18.2144 -6.03475 -12.9636
ltibia 29.0501
lfoot -15.9787 24.3594
ltoes -11.164
80
root 39.1167 16.1592 -0.486411 -70.1079 -88.5458 79.9605
lowerback 4.93843 -1.53273 -8.5941
upperback 4.6213 -2.42974 0.394208
thorax 2.42338 -1.52206 5.28701
lowerneck -6.81429 2.79209 2.8769
upperneck 37.0132 2.10802 -2.00043
head 13.7367 0.418856 -1.19592
rclavicle -3.39922e-014 -3.02153e-014
rhumerus -26.3784 5.69765 -88.6702
rradius 33.4884
rwrist 3.44842
rhand -24.259 36.105
rfingers 7.12502
rthumb 2.22726 6.13686
lclavicle -3.39922e-014 -3.02153e-014
lhumerus -22.7166 15.714 83.8805
lradius 21.7934
lwrist -6.11785
lhand -18.3916 36.801
lfingers 7.12502
lthumb 7.89239 66.6337
rfemur -20.3448 -1.54852 14.3477
rtibia 30.7278
rfoot -16.036 -16.2707
rtoes -8.17712
lfemur -18.6375 -5.7134 -12.8449
ltibia 29.0256
lfoot -15.675 23.951
ltoes -11.7187
81
root 39.1575 16.1683 -0.511946 -83.2291 -88.6676 93.6802
lowerback 5.36498 -1.36123 -8.90882
upperback 4.43116 -2.25946 0.552206
thorax 1.98226 -1.42128 5.64765
lowerneck -6.56769 2.74669 2.96894
upperneck 36.6924 2.08954 -2.11751
head 13.5383 0.418297 -1.25568
rclavicle 1.72943e-014 -3.1408e-014
rhumerus -26.432 6.78295 -88.7204
rradius 33.9106
rwrist 3.70596
rhand -19.5926 37.9385
rfingers 7.12502
rthumb 6.73313 8.06554
lclavicle 1.72943e-014 -3.1408e-014
lhumerus -22.7149 14.6346 84.4264
lradius 22.2501
lwrist -5.46286
lhand -18.5873 37.4674
lfingers 7.12502
lthumb 7.70353 67.3071
rfemur -21.3306 -1.68168 14.5729
rtibia 30.8271
rfoot -15.9352 -15.8063
rtoes -8.65341
lfemur -19.389 -5.37754 -12.603
ltibia 29.0132
lfoot -15.4571 23.9947
ltoes -11.6211
82
root 39.1848 16.169 -0.532809 -78.2129 -88.7569 88.7592
lowerback 5.14822 -1.37011 -8.45065
upperback 5.16501 -2.22809 0.213203
thorax 2.83007 -1.45884 5.00796
lowerneck -6.883 2.75736 3.29951
upperneck 35.9267 2.0498 -1.85593
head 13.2651 0.510514 -1.19552
rclavicle -1.25234e-014 9.93923e-015
rhumerus -25.2413 7.31752 -89.3109
rradius 34.1424
rwrist 3.85301
rhand -19.8718 37.2111
rfingers 7.12502
rthumb 6.46355 7.32974
lclavicle -1.25234e-014 9.93923e-015
lhumerus -21.4034 13.4318 84.4707
lradius 22.4681
lwrist -4.83936
lhand -18.7275 37.3407
lfingers 7.12502
lthumb 7.56816 67.1853
rfemur -21.6031 -1.87084 14.8021
rtibia 30.9372
rfoot -15.9235 -15.6851
rtoes -8.57177
lfemur -19.6474 -5.34754 -12.3678
ltibia 29.0289
lfoot -15.3656 23.8217
ltoes -11.1801
83
root 39.2232 16.1737 -0.560325 -64.3695 -88.8085 75.2305
lowerback 5.86529 -1.39747 -8.49521
upperback 5.14649 -2.34027 0.284131
thorax 2.4325 -1.50283 5.13578
lowerneck -6.72088 2.77504 3.42312
upperneck 35.555 2.09729 -1.88684
head 13.07 0.554579 -1.21686
rclavicle 3.97569e-014 -1.27222e-014
rhumerus -24.9606 8.41905 -89.4808
rradius 34.3522
rwrist 3.73844
rhand -19.0878 38.0229
rfingers 7.12502
rthumb 7.22037 8.16609
lclavicle 3.97569e-014 -1.27222e-014
lhumerus -21.2549 12.6177 84.696
lradius 23.0028
lwrist -4.43483
lhand -18.7054 36.9815
lfingers 7.12502
lthumb 7.5895 66.8253
rfemur -22.1409 -2.25743 15.0987
rtibia 31.0668
rfoot -15.8497 -15.5683
rtoes -8.09267
lfemur -20.239 -5.07529 -12.0919
ltibia 29.0415
lfoot -15.3016 23.2469
ltoes -10.6139
